PathFileType	4	(X/Y/Z)	c:/Users/goper/Files/vsCode/490R/osim_files/C07/C07_Slow_01.trc
DataRate	CameraRate	NumFrames	NumMarkers	Units                	OrigDataRate	OrigDataStartFrame	OrigNumFrames
250.00	250.00	6	36	mm	250.0	1940	3103
                Frame#	Time	LPSIS			LASIS			LTH1			LTH2			LTH3			LTH4			LLFE			LMFE			LSH1			LSH2			LSH3			LSH4			LLMAL			LMMAL			LCAL			LMTP5			LTOE			LMTP1			RPSIS			RASIS			RTH1			RTH2			RTH3			RTH4			RLFE			RMFE			RSH1			RSH2			RSH3			RSH4			RLMAL			RMMAL			RCAL			RMTP1			RTOE			RMTP5		
		X1	Y1	Z1	X2	Y2	Z2	X3	Y3	Z3	X4	Y4	Z4	X5	Y5	Z5	X6	Y6	Z6	X7	Y7	Z7	X8	Y8	Z8	X9	Y9	Z9	X10	Y10	Z10	X11	Y11	Z11	X12	Y12	Z12	X13	Y13	Z13	X14	Y14	Z14	X15	Y15	Z15	X16	Y16	Z16	X17	Y17	Z17	X18	Y18	Z18	X19	Y19	Z19	X20	Y20	Z20	X21	Y21	Z21	X22	Y22	Z22	X23	Y23	Z23	X24	Y24	Z24	X25	Y25	Z25	X26	Y26	Z26	X27	Y27	Z27	X28	Y28	Z28	X29	Y29	Z29	X30	Y30	Z30	X31	Y31	Z31	X32	Y32	Z32	X33	Y33	Z33	X34	Y34	Z34	X35	Y35	Z35	X36	Y36	Z36

1940	7.75600	-1126.88000	1009.39899	319.67871	-1300.55273	990.60925	398.08737	-1222.08850	794.31879	440.34250	-1227.64087	715.46686	438.54105	-1233.58081	641.00110	423.79169	-1304.34399	724.37036	416.75699	-1202.81140	517.30579	398.76495	-1204.54700	505.47684	277.25229	-1164.79272	325.54608	401.67151	-1148.38599	283.13806	385.60275	-1204.37891	331.08090	390.12015	-1200.42737	286.36658	380.97607	-1143.76050	103.73118	335.03137	-1173.19727	128.62286	264.71216	-1087.84351	45.71830	281.62897	-1264.19739	38.47874	371.89014	-1324.56714	50.65540	323.21701	-1298.69885	40.60948	268.59048	-1126.43811	1014.31055	220.88152	-1285.04675	994.52356	143.69266	-1291.94897	846.17273	79.48347	-1328.14124	776.14124	73.07612	-1362.23901	701.55975	75.18307	-1390.17297	803.50665	110.79642	-1407.60034	538.18866	98.59444	-1409.37585	541.05627	214.85164	-1281.89893	400.75748	96.85574	-1287.62231	345.37427	88.61535	-1338.00830	377.31442	89.61063	-1318.48572	337.17529	92.42921	-1195.78796	195.65854	132.71384	-1238.97095	188.12398	203.66426	-1137.48730	165.39587	189.14323	-1323.46423	66.08870	185.86920	-1340.73865	69.91451	134.00221	-1283.48364	73.82425	83.30623
1941	7.76000	-1130.16565	1009.06201	319.55515	-1303.90356	990.30096	398.05466	-1224.56470	794.09192	440.41776	-1229.86865	715.26807	438.55957	-1235.44141	640.81006	423.76181	-1306.35986	723.89026	416.64886	-1204.43860	517.21002	398.67410	-1206.10107	505.35770	277.20050	-1165.47791	325.42090	401.61945	-1149.13184	283.18497	385.55234	-1205.13123	330.91180	390.03879	-1201.12048	286.15045	380.92523	-1143.88477	103.70908	335.04785	-1173.31543	128.59685	264.61969	-1087.93787	45.60667	281.70468	-1264.15125	38.35759	371.95370	-1324.51794	50.50053	323.28989	-1298.71680	40.56209	268.59644	-1129.75183	1014.06842	220.76726	-1288.30676	994.39404	143.59195	-1295.43738	846.11005	79.32109	-1331.83105	776.35822	73.29352	-1366.08752	701.68683	75.25790	-1393.56372	803.63275	110.95974	-1411.82568	538.37750	98.64268	-1413.36646	541.03857	215.01038	-1288.28235	398.54376	96.76018	-1295.33496	345.76257	84.23520	-1344.84937	376.11365	89.62241	-1326.19531	335.67535	92.31714	-1205.91260	191.97864	131.99936	-1249.37695	184.89954	203.38411	-1148.47302	160.03630	188.91501	-1336.46887	64.68828	185.49155	-1353.59937	68.99630	133.53281	-1296.36926	71.69000	82.78147
1942	7.76400	-1133.24414	1008.89020	319.37296	-1306.99463	989.87726	398.07068	-1227.00952	793.86475	440.41507	-1232.03979	714.99445	438.53867	-1237.34583	640.49695	423.68546	-1308.54858	723.40430	416.50818	-1205.80579	516.99530	398.54272	-1207.49524	505.29257	277.04443	-1166.41528	325.36163	401.55276	-1149.87732	283.23456	385.49838	-1206.10120	330.72287	390.00354	-1201.79626	285.97830	380.84650	-1144.01807	103.70029	335.04477	-1173.47888	128.58076	264.54825	-1087.88928	45.67638	281.68692	-1264.16589	38.31394	371.98547	-1324.49268	50.42165	323.35260	-1299.19568	40.53342	268.66104	-1133.00879	1013.83185	220.72403	-1291.58777	994.22107	143.57716	-1298.74756	846.05603	79.17208	-1335.43042	776.51630	73.53225	-1369.63501	701.60046	75.14193	-1396.95813	803.68494	111.03189	-1415.94141	538.53143	98.68789	-1417.12830	540.95276	215.08894	-1294.68201	396.35339	96.70211	-1302.70813	343.88345	84.02261	-1351.73730	374.81921	89.46192	-1333.68713	334.15625	92.11920	-1216.57739	187.49252	132.23199	-1259.91321	181.51711	203.03279	-1159.69263	154.75464	188.55060	-1349.48413	63.30817	184.94267	-1367.81604	68.59666	131.69655	-1309.12537	69.67670	82.20747
1943	7.76800	-1136.66699	1008.58252	319.33167	-1308.99207	989.26141	397.63568	-1229.53418	793.72784	440.47064	-1234.33228	714.80609	438.57446	-1239.30981	640.36163	423.71982	-1310.93347	722.99774	416.29315	-1207.36890	516.98029	398.51566	-1208.94214	505.16214	276.93060	-1167.41675	325.42014	401.52530	-1150.62305	283.28894	385.44254	-1206.99878	330.60580	389.89136	-1202.60474	285.87097	380.77765	-1144.16406	103.69994	335.06281	-1173.60046	128.57585	264.46378	-1087.94141	45.65940	281.69943	-1264.17554	38.28094	372.04874	-1324.48486	50.36665	323.41208	-1298.58606	40.34663	268.55969	-1136.26746	1013.59418	220.62369	-1294.69800	994.04413	143.54414	-1302.05933	845.97394	78.96482	-1338.88989	776.56213	73.66014	-1373.61987	701.56036	75.20846	-1400.27686	803.65942	111.18298	-1419.96313	538.62036	98.76363	-1421.30054	540.95801	215.23965	-1301.12061	394.03204	96.66096	-1310.25012	341.98151	83.83041	-1358.38452	373.67889	89.33791	-1341.12378	332.64017	91.97784	-1226.93945	183.54730	131.94286	-1270.47095	178.38257	202.67188	-1170.80798	149.53696	188.33102	-1362.57556	62.09944	184.36954	-1379.94946	67.70723	131.28691	-1321.87122	67.77770	81.63564
1944	7.77200	-1139.98669	1008.30768	319.23355	-1313.44556	989.15833	397.96872	-1232.09094	793.56763	440.46387	-1236.59277	714.66553	438.52817	-1241.38965	640.18170	423.63043	-1313.36865	722.62390	416.14020	-1208.98914	516.86932	398.38721	-1210.50122	505.13290	276.84201	-1168.18481	325.50858	401.49585	-1151.36902	283.34848	385.38489	-1207.87231	330.53796	389.80237	-1203.40649	285.86786	380.70065	-1143.74854	103.89129	335.20200	-1173.71155	128.59428	264.36017	-1087.97876	45.73260	281.69736	-1264.16028	38.25817	372.05057	-1324.51782	50.37794	323.41006	-1298.15552	40.26064	268.94391	-1139.61011	1013.35687	220.55676	-1298.02234	993.82764	143.45204	-1305.36719	845.85388	78.80285	-1342.17993	776.46198	73.58780	-1376.62610	701.55884	74.92419	-1403.52063	803.61957	111.21424	-1423.94592	538.64154	98.80108	-1425.99524	540.82581	215.82791	-1307.45276	391.72052	96.59725	-1317.48157	340.08035	83.58484	-1365.12939	372.48141	89.17592	-1348.71570	331.14957	91.74711	-1237.21765	180.13440	131.22200	-1281.46680	175.40767	202.39482	-1182.13074	144.40855	188.10100	-1375.70886	60.97614	183.80754	-1392.72852	66.97327	130.71390	-1334.65723	65.82909	81.06931
1945	7.77600	-1143.10156	1008.18488	319.07651	-1315.38440	988.50067	397.51733	-1234.80676	793.50830	440.44122	-1238.98792	714.56836	438.53433	-1243.35303	640.05011	423.50189	-1315.61353	722.34265	415.83621	-1210.51245	516.87817	398.30682	-1211.83167	505.10355	276.76065	-1169.27173	325.63684	401.39917	-1152.11487	283.41208	385.32428	-1208.94128	330.53726	389.70761	-1204.16895	285.87286	380.60397	-1144.34912	103.90015	334.96112	-1173.77380	128.59811	264.20990	-1087.97729	45.83262	281.60703	-1264.23169	38.32264	372.02975	-1324.54663	50.39037	323.38995	-1298.82764	40.44020	268.46661	-1142.80811	1013.12219	220.40547	-1301.26294	993.56390	143.38953	-1308.53638	845.63379	78.64037	-1345.35010	776.26093	73.39686	-1380.04309	701.46246	74.87761	-1406.75378	803.51782	111.26388	-1427.77319	538.54474	98.83230	-1429.40906	540.71295	215.73781	-1313.71973	389.40140	96.48920	-1324.85168	338.10861	83.36666	-1371.76721	371.23795	88.99621	-1356.11780	329.59119	91.48333	-1247.73621	176.19286	130.96698	-1292.22168	172.26100	202.02362	-1193.30579	139.31345	187.73990	-1388.77441	60.02869	183.04466	-1405.55310	66.25843	130.18356	-1347.55652	64.03905	80.55125
